<svg xmlns="http://www.w3.org/2000/svg" width="280" height="280" viewBox="0 0 280 280" fill="none" stroke="#475569" stroke-width="1.4" stroke-linecap="round" stroke-linejoin="round" opacity="0.11">
  <!-- coffee cup -->
  <g transform="translate(20 24)">
    <path d="M2 6h18v10a6 6 0 0 1-6 6H8a6 6 0 0 1-6-6V6Z"/>
    <path d="M20 9h3a3 3 0 0 1 0 6h-3"/>
    <path d="M6 2v2M10 2v2M14 2v2"/>
  </g>
  <!-- shopping bag -->
  <g transform="translate(80 18)">
    <path d="M3 7h18l-1.5 14a2 2 0 0 1-2 1.8H6.5a2 2 0 0 1-2-1.8L3 7Z"/>
    <path d="M8 7V5a4 4 0 1 1 8 0v2"/>
  </g>
  <!-- heart -->
  <g transform="translate(140 22)">
    <path d="M12 21s-7-4.5-9.5-9A5.5 5.5 0 0 1 12 6a5.5 5.5 0 0 1 9.5 6c-2.5 4.5-9.5 9-9.5 9Z"/>
  </g>
  <!-- gift -->
  <g transform="translate(200 20)">
    <rect x="2" y="8" width="20" height="14" rx="1"/>
    <path d="M12 8v14M2 13h20"/>
    <path d="M12 8c-3 0-5-1.5-5-3.5S9 2 12 5c3-3 5-1.5 5 .5S15 8 12 8Z"/>
  </g>
  <!-- star -->
  <g transform="translate(245 90)">
    <path d="M12 2l3 7 7 .5-5.5 4.5 2 7-6.5-4-6.5 4 2-7L2 9.5 9 9z"/>
  </g>
  <!-- camera -->
  <g transform="translate(20 90)">
    <rect x="2" y="6" width="20" height="14" rx="2"/>
    <circle cx="12" cy="13" r="4"/>
    <path d="M7 6l2-3h6l2 3"/>
  </g>
  <!-- envelope -->
  <g transform="translate(80 90)">
    <rect x="2" y="5" width="20" height="14" rx="2"/>
    <path d="M2 7l10 7 10-7"/>
  </g>
  <!-- price tag -->
  <g transform="translate(140 92)">
    <path d="M3 12V3h9l9 9-9 9-9-9Z"/>
    <circle cx="8" cy="8" r="1.5"/>
  </g>
  <!-- musical note -->
  <g transform="translate(200 92)">
    <path d="M9 18V4l10-2v14"/>
    <circle cx="6" cy="18" r="3"/>
    <circle cx="16" cy="16" r="3"/>
  </g>
  <!-- truck -->
  <g transform="translate(20 158)">
    <path d="M2 6h12v10H2zM14 9h5l3 3v4h-8z"/>
    <circle cx="6" cy="18" r="2"/>
    <circle cx="18" cy="18" r="2"/>
  </g>
  <!-- flower -->
  <g transform="translate(80 158)">
    <circle cx="12" cy="12" r="2.5"/>
    <path d="M12 9.5V4M12 14.5V20M9.5 12H4M14.5 12H20M10 10l-3-3M14 14l3 3M14 10l3-3M10 14l-3 3"/>
  </g>
  <!-- chat bubble -->
  <g transform="translate(140 160)">
    <path d="M3 5h18v12H8l-5 4V5Z"/>
    <circle cx="9" cy="11" r="0.8" fill="currentColor"/>
    <circle cx="13" cy="11" r="0.8" fill="currentColor"/>
    <circle cx="17" cy="11" r="0.8" fill="currentColor"/>
  </g>
  <!-- sparkles -->
  <g transform="translate(202 160)">
    <path d="M12 2v6M12 16v6M2 12h6M16 12h6"/>
    <path d="M5 5l3 3M16 16l3 3M19 5l-3 3M5 19l3-3"/>
  </g>
  <!-- shoe / sneaker -->
  <g transform="translate(245 220)">
    <path d="M2 16v-3l4-7 4 1 2 4h6l3 3v2H2Z"/>
    <path d="M6 6l1 2M9 6l1 2"/>
  </g>
  <!-- leaf -->
  <g transform="translate(50 220)">
    <path d="M3 21c2-10 10-15 18-15-1 8-7 16-18 15Z"/>
    <path d="M5 19c4-4 8-7 14-11"/>
  </g>
  <!-- crown -->
  <g transform="translate(110 222)">
    <path d="M3 18h18v3H3z"/>
    <path d="M3 18l2-9 4 4 3-8 3 8 4-4 2 9"/>
  </g>
  <!-- diamond -->
  <g transform="translate(168 222)">
    <path d="M3 9l4-6h10l4 6-9 12L3 9Z"/>
    <path d="M7 3l2 6 3-6 3 6 2-6M3 9h18"/>
  </g>
  <!-- second row offset doodles to avoid grid feel -->
  <g transform="translate(245 30)">
    <circle cx="6" cy="6" r="4"/>
    <path d="M6 2v8M2 6h8"/>
  </g>
  <g transform="translate(248 158)">
    <path d="M2 10c0-4 4-7 8-3 4-4 8-1 8 3-4 0-4 4-8 4s-4-4-8-4Z"/>
  </g>
</svg>
